<?xml version="1.0" encoding="utf-8"?>
<!-- Generator: Adobe Illustrator 21.1.0, SVG Export Plug-In . SVG Version: 6.00 Build 0)  -->
<svg version="1.1" id="Layer_1" xmlns="http://www.w3.org/2000/svg" xmlns:xlink="http://www.w3.org/1999/xlink" x="0px" y="0px"
	 viewBox="0 0 1440 900" style="enable-background:new 0 0 1440 900;" xml:space="preserve">
<g>
	<path d="M521,685c-1,0-2,0-3,0c-10.3-1.4-17-7-21.4-16.4c-3-6.3-7.2-12-11-17.8c-3.8-5.8-11.4-6.2-15.1-1
		c-3.7,5.1-5.1,5.4-10.7,2.8c-3.6-1.6-5.8-4.3-7.2-7.9c-3.2-8.2-9.2-14.1-15.8-19.5c-4.7-3.8-7.5-3.7-12.4,0.2
		c-1.4,1.1-2.7,2-4.5,1.9c-13.8-0.5-27.6-0.8-40.1-8.1c-10.8-6.3-21.1-14.2-35-12c-3.4,0.5-4.6-2.7-5.8-5.3
		c-3.1-6.3-6.6-12.2-13.1-15.9c-5.5-3.1-11.3-10-14.3-15.9c-1.2-2.4-2.6-4.7-3.7-7.1c-0.8-1.8-1.7-3.7-2-5.6
		c-1.3-10.9-3.4-21.7-9-31.4c0-6,0-12,0-18c2.7-5.5,4.3-11.2,3.7-17.4c-0.4-4.1,1-7.8,2.6-11.5c3.1-7.6,8.1-14.2,10.4-22.1
		c2.5-8.8,2.7-17.7,0.9-26.7c-0.4-1.9-0.8-4.2,1-5.6c2-1.6,3.7,0.3,5.4,1.2c2.2,1.2,4.6,2.8,6.8,0.6c3-3.1,6.5-2.8,10.2-2.1
		c4.1,0.8,8.2,1.3,12.3,2.1c27.6,5.1,55.4,9.6,83.5,11.4c25.5,1.6,51,0.9,76.4,1c5.6,0,10.9-0.9,15.8-3.9c3-1.8,5.7-1.5,8,1.3
		c2.1,2.5,4.8,3.4,8,3.4c2.2,0,4.4,0.1,6.3,1.2c4.2,2.5,8.8,2.8,13.5,2.9c6.1,0.1,8.1,3.3,6,9.2c-0.5,1.5-1.9,3.2,0.2,4.4
		c1.7,1,3.2-0.4,4.4-1.5c2.4-2.2,4.1-5.3,7.6-6.3c2.1-0.6,4.5-0.9,4.9,1.7c1,6.8,4.8,5.2,9,3.6c6.6-2.5,12.6-2.3,19,1.8
		c5.9,3.8,6.7,10,9.4,15.4c1,1.9,1.3,4.1,3,5.6c5.9,5.3,7.8,11.7,5.4,19.3c-0.5,1.7-1.4,3.6,0.3,5.1c2.1,1.7,4.1,0.6,6-0.5
		c5.1-3,9.1-7.2,12.8-11.6c1.5-1.8,3.9-3.4,3.8-6.2c-0.2-4.4,2.3-6.1,6.3-6.9c3.3-0.6,6.4-1.6,7.9-5.2c3.9-9.1,8.3-17.5,20.1-17.6
		c1.1,0,2.3-0.4,3.4-0.9c9-4.2,14.4-8,14.3-16.6c0-6.8,0.1-13.2,5.4-18.3c3.7,0,7.3,0,11,0c2.2,2.3,3.9,4.9,5.5,7.7
		c2.4,4.4,5,8.7,9.5,11.3c0,3,0,6,0,9c-5.6,3.7-10.3,8.4-14.7,13.4c-5.2,5.8-4.6,10.2,1.6,13.9c4.4,2.6,4.5,5.9,0.4,8.9
		c-2.9,2.1-6.8,3.4-8.1,7.1c-1.4,4-4.1,6.2-7.5,8.2c-2.8,1.7-6.1,3.5-6.1,7.3c0,11.3-3.5,21.9-6.6,32.6c-0.7,2.5-0.7,4.9,0.8,7.2
		c5.6,8.6,5.1,12.9-2.3,19.7c-5.7,5.2-9.3,12.2-14.6,17.8c-4,4.3-7,10.3-10.5,15.5c-7.4,11.1-7.1,18.1,3.1,30.5
		c8.3,10,13.3,21.4,12.7,34.7c-0.3,6.9-5.1,9.2-11,5.4c-6.8-4.3-11.6-10.8-17.8-15.9c-2.9-2.4-4.5-6.4-4.7-10.7
		c-0.4-8.5-7.4-13.4-15.4-11c-3.4,1-6.8,1-9.7-0.6c-9-4.9-17.5-1.1-26,1.3c-3.6,1-5.3,3.3-2.4,7.1c2,2.6,1.8,6-1.5,6.2
		c-6,0.4-12.5,3.3-18.2,0.6c-7-3.4-14.2-2.8-21.4-2.8c-5,0-9.8,1.8-12.9,5.6c-4.7,5.6-10.5,9.6-16.7,13.3c-3.9,2.3-5.6,6-4.2,10.7
		c0.6,2.1,0.9,4.2,1.5,6.3C525.7,681.8,524.7,684,521,685z"/>
</g>
</svg>
